<svg aria-hidden="true" style="position: absolute; width: 0; height: 0; overflow: hidden;" version="1.1" xmlns="http://www.w3.org/2000/svg" xmlns:xlink="http://www.w3.org/1999/xlink">
<defs>
<symbol id="icon-arrow-right" viewBox="0 0 24 24">
<title>arrow-right-outline</title>
<path d="M12 21c-0.801 0-1.555-0.312-2.121-0.879s-0.88-1.321-0.879-2.123c0-0.746 0.271-0.998 0.764-1.998h-4.836c-1.654 0-3-1.347-3-3 0-1.654 1.346-3 3-3h4.836c-0.494-1-0.764-1.255-0.764-2.001 0.001-0.802 0.312-1.554 0.88-2.121 1.132-1.132 3.108-1.133 4.241 0.001l7.121 7.121-7.121 7.121c-0.566 0.567-1.32 0.879-2.121 0.879zM4.928 12c-0.552 0-1 0.449-1 1s0.448 1 1 1h9.658l-3.293 3.293c-0.189 0.189-0.293 0.439-0.293 0.706 0 0.269 0.104 0.519 0.293 0.708 0.379 0.378 1.035 0.378 1.414 0l5.707-5.707-5.707-5.707c-0.379-0.378-1.035-0.378-1.414 0-0.189 0.189-0.293 0.439-0.293 0.706 0 0.268 0.104 0.519 0.293 0.708l3.293 3.293h-9.658z"></path>
</symbol>
<symbol id="icon-news" viewBox="0 0 24 24">
<title>news</title>
<path d="M21 4h-18c-1.104 0-2 0.896-2 2v12c0 1.104 0.896 2 2 2h18c1.104 0 2-0.896 2-2v-12c0-1.104-0.896-2-2-2zM3 6h8v12h-8v-12zM21 18h-9v-12h9.003l-0.003 12z"></path>
<path d="M20 13.5c0-0.275-0.225-0.5-0.5-0.5h-1c-0.275 0-0.5 0.225-0.5 0.5v3c0 0.275 0.225 0.5 0.5 0.5h1c0.275 0 0.5-0.225 0.5-0.5v-3z"></path>
<path d="M17 7.5c0-0.275-0.225-0.5-0.5-0.5h-3c-0.275 0-0.5 0.225-0.5 0.5v5c0 0.275 0.225 0.5 0.5 0.5h3c0.275 0 0.5-0.225 0.5-0.5v-5z"></path>
<path d="M18.5 10h1c0.275 0 0.5-0.225 0.5-0.5s-0.225-0.5-0.5-0.5h-1c-0.275 0-0.5 0.225-0.5 0.5s0.225 0.5 0.5 0.5z"></path>
<path d="M18.5 12h1c0.275 0 0.5-0.225 0.5-0.5s-0.225-0.5-0.5-0.5h-1c-0.275 0-0.5 0.225-0.5 0.5s0.225 0.5 0.5 0.5z"></path>
<path d="M13.5 15h3c0.275 0 0.5-0.225 0.5-0.5s-0.225-0.5-0.5-0.5h-3c-0.275 0-0.5 0.225-0.5 0.5s0.225 0.5 0.5 0.5z"></path>
<path d="M16.5 16h-3c-0.275 0-0.5 0.225-0.5 0.5s0.225 0.5 0.5 0.5h3c0.275 0 0.5-0.225 0.5-0.5s-0.225-0.5-0.5-0.5z"></path>
<path d="M18.5 8h1c0.275 0 0.5-0.225 0.5-0.5s-0.225-0.5-0.5-0.5h-1c-0.275 0-0.5 0.225-0.5 0.5s0.225 0.5 0.5 0.5z"></path>
<path d="M10 7.5c0-0.275-0.225-0.5-0.5-0.5h-5c-0.275 0-0.5 0.225-0.5 0.5v3c0 0.275 0.225 0.5 0.5 0.5h5c0.275 0 0.5-0.225 0.5-0.5v-3z"></path>
<path d="M9.501 14h-5c-0.274 0-0.5 0.225-0.5 0.5s0.226 0.5 0.5 0.5h5c0.274 0 0.499-0.225 0.499-0.5s-0.225-0.5-0.499-0.5z"></path>
<path d="M9.501 12h-5c-0.274 0-0.5 0.225-0.5 0.5s0.226 0.5 0.5 0.5h5c0.274 0 0.499-0.225 0.499-0.5s-0.225-0.5-0.499-0.5z"></path>
<path d="M9.501 16h-5c-0.274 0-0.5 0.225-0.5 0.5s0.226 0.5 0.5 0.5h5c0.274 0 0.499-0.225 0.499-0.5s-0.225-0.5-0.499-0.5z"></path>
</symbol>
<symbol id="icon-home" viewBox="0 0 24 24">
<title>home-outline</title>
<path d="M22.262 10.468c-3.39-2.854-9.546-8.171-9.607-8.225l-0.655-0.563-0.652 0.563c-0.062 0.053-6.221 5.368-9.66 8.248-0.438 0.394-0.688 0.945-0.688 1.509 0 1.104 0.896 2 2 2h1v6c0 1.104 0.896 2 2 2h12c1.104 0 2-0.896 2-2v-6h1c1.104 0 2-0.896 2-2 0-0.598-0.275-1.161-0.738-1.532zM14 20h-4v-5h4v5zM18 12l0.002 8c-0.002 0-3.002 0-3.002 0v-6h-6v6h-3v-8h-3.001c2.765-2.312 7.315-6.227 9.001-7.68 1.686 1.453 6.234 5.367 9 7.681 0 0-3 0-3-0.001z"></path>
</symbol>
<symbol id="icon-location" viewBox="0 0 24 24">
<title>location-outline</title>
<path d="M12 5c1.609 0 3.12 0.614 4.254 1.73 1.126 1.107 1.746 2.579 1.746 4.14s-0.62 3.030-1.745 4.139l-4.255 4.184-4.254-4.186c-1.125-1.107-1.745-2.576-1.745-4.139s0.62-3.032 1.745-4.141c1.135-1.113 2.647-1.727 4.254-1.727M12 3c-2.047 0-4.096 0.768-5.657 2.305-3.124 3.074-3.124 8.057 0 11.131l5.657 5.563 5.657-5.565c3.124-3.072 3.124-8.056 0-11.129-1.561-1.537-3.609-2.305-5.657-2.305z"></path>
<path d="M12 8.499c0.668 0 1.296 0.26 1.768 0.731 0.976 0.976 0.976 2.562 0 3.537-0.473 0.472-1.1 0.731-1.768 0.731s-1.295-0.26-1.768-0.731c-0.976-0.976-0.976-2.562 0-3.537 0.473-0.471 1.101-0.731 1.768-0.731M12 7.499c-0.896 0-1.792 0.342-2.475 1.024-1.367 1.367-1.367 3.584 0 4.951 0.684 0.684 1.578 1.024 2.475 1.024s1.792-0.342 2.475-1.024c1.366-1.367 1.366-3.584 0-4.951-0.683-0.683-1.579-1.024-2.475-1.024z"></path>
</symbol>
<symbol id="icon-heart" viewBox="0 0 24 24">
<title>heart-outline</title>
<path d="M12 20c-0.195 0-0.391-0.057-0.561-0.172-0.225-0.151-5.508-3.73-7.146-5.371-1.831-1.831-2.043-3.777-2.043-5.082 0-2.964 2.411-5.375 5.375-5.375 1.802 0 3.398 0.891 4.375 2.256 0.977-1.365 2.573-2.256 4.375-2.256 2.964 0 5.375 2.411 5.375 5.375 0 1.305-0.212 3.251-2.043 5.082-1.641 1.641-6.923 5.22-7.146 5.371-0.17 0.115-0.366 0.172-0.561 0.172zM7.625 6c-1.861 0-3.375 1.514-3.375 3.375 0 1.093 0.173 2.384 1.457 3.668 1.212 1.212 4.883 3.775 6.293 4.746 1.41-0.971 5.081-3.534 6.293-4.746 1.284-1.284 1.457-2.575 1.457-3.668 0-1.861-1.514-3.375-3.375-3.375s-3.375 1.514-3.375 3.375c0 0.552-0.447 1-1 1s-1-0.448-1-1c0-1.861-1.514-3.375-3.375-3.375z"></path>
</symbol>
<symbol id="icon-user" viewBox="0 0 24 24">
<title>user-outline</title>
<path d="M12 6c1.654 0 3 1.346 3 3s-1.346 3-3 3-3-1.346-3-3 1.346-3 3-3M12 4c-2.764 0-5 2.238-5 5s2.236 5 5 5 5-2.238 5-5-2.236-5-5-5z"></path>
<path d="M12 17c2.021 0 3.301 0.771 3.783 1.445-0.683 0.26-1.969 0.555-3.783 0.555-1.984 0-3.206-0.305-3.818-0.542 0.459-0.715 1.777-1.458 3.818-1.458M12 15c-3.75 0-6 2-6 4 0 1 2.25 2 6 2 3.518 0 6-1 6-2s-2.354-4-6-4z"></path>
</symbol>
<symbol id="icon-wine" viewBox="0 0 24 24">
<title>wine</title>
<path d="M17.568 9.432c0-2.55-0.906-5.592-0.944-5.72-0.128-0.423-0.517-0.712-0.958-0.712h-7.332c-0.441 0-0.83 0.289-0.958 0.712-0.038 0.128-0.944 3.17-0.944 5.72 0 2.735 1.984 5.011 4.587 5.477-0.003 0.030-0.019 0.059-0.019 0.091v4h-1c-0.553 0-1 0.447-1 1s0.447 1 1 1h4c0.553 0 1-0.447 1-1s-0.447-1-1-1h-1v-4c0-0.032-0.016-0.061-0.019-0.092 2.603-0.466 4.587-2.741 4.587-5.476zM12 13c-1.773 0-3.236-1.303-3.511-3h7.021c-0.274 1.697-1.737 3-3.51 3zM8.445 9c0.062-1.468 0.422-3.093 0.653-4h5.803c0.231 0.907 0.591 2.532 0.653 4h-7.109z"></path>
</symbol>\
<symbol id="icon-heart-full" viewBox="0 0 24 24">
<title>heart-full</title>
<path d="M12 10.375c0-2.416-1.959-4.375-4.375-4.375s-4.375 1.959-4.375 4.375c0 1.127 0.159 2.784 1.75 4.375s7 5.25 7 5.25 5.409-3.659 7-5.25 1.75-3.248 1.75-4.375c0-2.416-1.959-4.375-4.375-4.375s-4.375 1.959-4.375 4.375"></path>
</symbol>
</defs>
</svg>
