<svg height="512pt" viewBox="-87 0 511 512" width="512pt" xmlns="http://www.w3.org/2000/svg"><path d="m56.515625 8h48v39.921875h-48zm0 0" fill="#ed5565"/><path d="m56.515625 47.921875h48v80.078125h-48zm0 0" fill="#da4453"/><path d="m312.4375 232.078125 16 103.921875h-127.921875l16-103.921875zm0 0" fill="#e6e9ed"/><path d="m312.4375 232.078125h-16.015625l16 103.921875h16.015625zm0 0" fill="#ccd1d9"/><path d="m328.4375 336h.078125c0 35.359375-28.640625 64-64 64s-63.917969-28.558594-64-63.921875v-.078125zm0 0" fill="#ed5565"/><g fill="#da4453"><path d="m328.4375 336h-15.9375c0 32.640625-24.433594 59.503906-55.992188 63.449219 2.625.328125 5.289063.550781 8.007813.550781 35.359375 0 64-28.640625 64-64zm0 0"/><path d="m80.515625 315.921875c0 6.636719-5.359375 12-12 12s-12-5.363281-12-12c0-6.5625 5.359375-12 12-12s12 5.4375 12 12zm0 0"/><path d="m80.515625 327.921875c6.640625 0 12 5.4375 12 12 0 6.636719-5.359375 12-12 12s-12-5.363281-12-12c0-6.5625 5.359375-12 12-12zm0 0"/><path d="m80.515625 315.921875c0-6.5625 5.359375-12 12-12s12 5.4375 12 12c0 6.636719-5.359375 12-12 12s-12-5.363281-12-12zm0 0"/></g><path d="m32.515625 440v-184h96v184zm48-112.078125c-6.640625 0-12 5.4375-12 12 0 6.636719 5.359375 12 12 12s12-5.363281 12-12c0-6.5625-5.359375-12-12-12zm12-24c-6.640625 0-12 5.4375-12 12 0-6.5625-5.359375-12-12-12s-12 5.4375-12 12c0 6.636719 5.359375 12 12 12s12-5.363281 12-12c0 6.636719 5.359375 12 12 12s12-5.363281 12-12c0-6.5625-5.359375-12-12-12zm0 0" fill="#ed5565"/><path d="m104.515625 148.078125v-20.078125h-48v20.078125c-28 9.921875-48 36.5625-48 67.921875v272c0 8.800781 7.121094 16 16 16h112c8.800781 0 16-7.199219 16-16v-272c0-31.359375-20.078125-58-48-67.921875zm24 291.921875h-96v-184h96zm0 0" fill="#656d78"/><path d="m104.515625 148.078125v-20.078125h-24.023437v28.089844c27.917968 9.917968 48 36.558594 48 67.917968v31.992188h.023437v184h-.023437v48c0 8.800781-7.199219 16-16 16h24.023437c8.800781 0 16-7.199219 16-16v-272c0-31.359375-20.078125-58-48-67.921875zm0 0" fill="#434a54"/><path d="m80.492188 47.921875h24.023437v80.078125h-24.023437zm0 0" fill="#d3374e"/><path d="m80.492188 8h24.023437v39.921875h-24.023437zm0 0" fill="#da4453"/><path d="m56.5 156.121094c-4.425781 0-8-3.578125-8-8v-140.121094c0-4.425781 3.574219-8 8-8s8 3.574219 8 8v140.121094c0 4.414062-3.574219 8-8 8zm0 0"/><path d="m104.515625 156.136719c-4.421875 0-8-3.578125-8-8v-140.136719c0-4.425781 3.578125-8 8-8 4.425781 0 8 3.574219 8 8v140.136719c0 4.414062-3.574219 8-8 8zm0 0"/><path d="m104.515625 16h-48.015625c-4.425781 0-8-3.574219-8-8s3.574219-8 8-8h48.015625c4.425781 0 8 3.574219 8 8s-3.574219 8-8 8zm0 0"/><path d="m8.5 496c-4.425781 0-8-3.574219-8-8v-271.992188c0-4.421874 3.574219-8 8-8s8 3.578126 8 8v271.992188c0 4.425781-3.574219 8-8 8zm0 0"/><path d="m152.5 496c-4.425781 0-8-3.574219-8-8v-271.992188c0-4.421874 3.574219-8 8-8s8 3.578126 8 8v271.992188c0 4.425781-3.574219 8-8 8zm0 0"/><path d="m152.5 224.023438c-4.425781 0-8-3.574219-8-8 0-27.0625-17.144531-51.3125-42.65625-60.351563-4.167969-1.480469-6.34375-6.046875-4.863281-10.207031 1.464843-4.167969 6.039062-6.335938 10.207031-4.863282 31.886719 11.285157 53.3125 41.597657 53.3125 75.429688 0 4.417969-3.574219 7.992188-8 7.992188zm0 0"/><path d="m8.5 224.023438c-4.425781 0-8-3.574219-8-8 0-33.855469 21.441406-64.175782 53.335938-75.449219 4.183593-1.46875 8.742187.707031 10.199218 4.875 1.480469 4.167969-.710937 8.734375-4.871094 10.199219-25.511718 9.023437-42.664062 33.28125-42.664062 60.367187 0 4.433594-3.574219 8.007813-8 8.007813zm0 0"/><path d="m24.5 512c-13.230469 0-24-10.769531-24-24 0-4.425781 3.574219-8 8-8s8 3.574219 8 8c0 4.414062 3.585938 8 8 8 4.425781 0 8 3.574219 8 8s-3.574219 8-8 8zm0 0"/><path d="m136.5 512c-4.425781 0-8-3.574219-8-8s3.574219-8 8-8c4.414062 0 8-3.585938 8-8 0-4.425781 3.574219-8 8-8s8 3.574219 8 8c0 13.230469-10.769531 24-24 24zm0 0"/><path d="m136.5 512h-112c-4.425781 0-8-3.574219-8-8s3.574219-8 8-8h112c4.425781 0 8 3.574219 8 8s-3.574219 8-8 8zm0 0"/><path d="m104.515625 55.976562h-48.015625c-4.425781 0-8-3.578124-8-8 0-4.425781 3.574219-8 8-8h48.015625c4.425781 0 8 3.574219 8 8 0 4.421876-3.574219 8-8 8zm0 0"/><path d="m104.515625 136h-48.015625c-4.425781 0-8-3.574219-8-8s3.574219-8 8-8h48.015625c4.425781 0 8 3.574219 8 8s-3.574219 8-8 8zm0 0"/><path d="m128.5 448h-96c-4.425781 0-8-3.574219-8-8v-184.007812c0-4.425782 3.574219-8 8-8h96c4.425781 0 8 3.574218 8 8v184.007812c0 4.425781-3.574219 8-8 8zm-88-16h80v-168.007812h-80zm0 0"/><path d="m68.5 335.976562c-11.03125 0-20-8.96875-20-20s8.96875-20 20-20 20 8.96875 20 20-8.96875 20-20 20zm0-24c-2.199219 0-4 1.800782-4 4 0 2.199219 1.800781 4 4 4s4-1.800781 4-4c0-2.199218-1.800781-4-4-4zm0 0"/><path d="m92.5 335.976562c-11.03125 0-20-8.96875-20-20s8.96875-20 20-20 20 8.96875 20 20-8.96875 20-20 20zm0-24c-2.199219 0-4 1.800782-4 4 0 2.199219 1.800781 4 4 4s4-1.800781 4-4c0-2.199218-1.800781-4-4-4zm0 0"/><path d="m80.5 359.976562c-11.03125 0-20-8.96875-20-20s8.96875-20 20-20 20 8.96875 20 20-8.96875 20-20 20zm0-24c-2.199219 0-4 1.800782-4 4 0 2.199219 1.800781 4 4 4s4-1.800781 4-4c0-2.199218-1.800781-4-4-4zm0 0"/><path d="m80.5 323.976562c-4.425781 0-8-3.578124-8-8v-28c0-4.425781 3.574219-8 8-8s8 3.574219 8 8v28c0 4.421876-3.574219 8-8 8zm0 0"/><path d="m104.5 391.976562h-48.015625c-4.425781 0-8-3.578124-8-8 0-4.425781 3.574219-8 8-8h48.015625c4.425781 0 8 3.574219 8 8 0 4.421876-3.574219 8-8 8zm0 0"/><path d="m88.484375 415.984375h-15.984375c-4.425781 0-8-3.578125-8-8 0-4.425781 3.574219-8 8-8h15.984375c4.421875 0 8 3.574219 8 8 0 4.421875-3.578125 8-8 8zm0 0"/><path d="m264.515625 408.03125c-39.703125 0-72-32.296875-72-71.992188 0-4.421874 3.578125-8 8-8 4.425781 0 8 3.578126 8 8 0 30.871094 25.128906 55.992188 56 55.992188 30.863281 0 55.984375-25.121094 55.984375-55.992188 0-4.421874 3.574219-8 8-8s8 3.578126 8 8c0 39.695313-32.289062 71.992188-71.984375 71.992188zm0 0"/><path d="m200.492188 344.078125c-.40625 0-.816407-.03125-1.222657-.09375-4.371093-.671875-7.363281-4.761719-6.691406-9.128906l16-103.984375c.675781-4.367188 4.753906-7.328125 9.128906-6.6875 4.367188.671875 7.359375 4.761718 6.6875 9.128906l-16 103.984375c-.613281 3.949219-4.023437 6.78125-7.902343 6.78125zm0 0"/><path d="m328.460938 344.078125c-3.882813 0-7.289063-2.832031-7.898438-6.78125l-16-103.984375c-.671875-4.367188 2.320312-8.457031 6.691406-9.128906 4.445313-.695313 8.453125 2.328125 9.125 6.6875l16 103.984375c.671875 4.367187-2.320312 8.457031-6.6875 9.128906-.414062.0625-.832031.09375-1.230468.09375zm0 0"/><path d="m312.46875 240.097656h-95.984375c-4.425781 0-8-3.578125-8-8 0-4.425781 3.574219-8 8-8h95.984375c4.421875 0 8 3.574219 8 8 0 4.421875-3.578125 8-8 8zm0 0"/><path d="m264.515625 512c-4.421875 0-8-3.574219-8-8v-103.9375c0-4.421875 3.578125-8 8-8 4.425781 0 8 3.578125 8 8v103.9375c0 4.425781-3.574219 8-8 8zm0 0"/><path d="m320.46875 512h-111.984375c-4.425781 0-8-3.574219-8-8s3.574219-8 8-8h111.984375c4.421875 0 8 3.574219 8 8s-3.578125 8-8 8zm0 0"/><path d="m328.53125 344.039062h-128.046875c-4.425781 0-8-3.574218-8-8 0-4.421874 3.574219-8 8-8h128.046875c4.425781 0 8 3.578126 8 8 0 4.425782-3.574219 8-8 8zm0 0"/></svg>